<svg width="64" height="64" viewBox="0 0 64 64" fill="none" xmlns="http://www.w3.org/2000/svg">
  <rect width="64" height="64" rx="12" fill="#2563eb"/>
  <path d="M20 28C20 25.7909 21.7909 24 24 24H28C30.2091 24 32 25.7909 32 28V32C32 34.2091 30.2091 36 28 36H24C21.7909 36 20 34.2091 20 32V28Z" fill="white"/>
  <path d="M36 28C36 25.7909 37.7909 24 40 24H44C46.2091 24 48 25.7909 48 28V32C48 34.2091 46.2091 36 44 36H40C37.7909 36 36 34.2091 36 32V28Z" fill="white"/>
  <path d="M20 40C20 37.7909 21.7909 36 24 36H44C46.2091 36 48 37.7909 48 40V44C48 46.2091 46.2091 48 44 48H24C21.7909 48 20 46.2091 20 44V40Z" fill="#60a5fa"/>
  <path d="M24 12C24 10.8954 24.8954 10 26 10H38C39.1046 10 40 10.8954 40 12V14C40 15.1046 39.1046 16 38 16H26C24.8954 16 24 15.1046 24 14V12Z" fill="#93c5fd"/>
  <circle cx="32" cy="18" r="2" fill="white"/>
  <path d="M31 20L31 24" stroke="white" stroke-width="2" stroke-linecap="round"/>
</svg>
